<mxfile host="app.diagrams.net" modified="2024-03-20T22:10:41.592Z" agent="Mozilla/5.0 (Windows NT 10.0; Win64; x64) AppleWebKit/537.36 (KHTML, like Gecko) Chrome/122.0.0.0 Safari/537.36" etag="jwBuytosl-8Bo5ADf5o-" version="24.0.7" type="device">
  <diagram id="yPxyJZ8AM_hMuL3Unpa9" name="simple gitflow">
    <mxGraphModel dx="574" dy="746" grid="1" gridSize="10" guides="1" tooltips="1" connect="1" arrows="1" fold="1" page="1" pageScale="1" pageWidth="1100" pageHeight="850" math="0" shadow="0">
      <root>
        <mxCell id="0" />
        <mxCell id="1" parent="0" />
        <mxCell id="c_GlmRhwrdmI_Wuf_9AT-40" value="TELEMETRY" style="rounded=1;whiteSpace=wrap;html=1;" parent="1" vertex="1">
          <mxGeometry x="1420" y="930" width="120" height="60" as="geometry" />
        </mxCell>
        <mxCell id="c_GlmRhwrdmI_Wuf_9AT-41" value="COMMANDING" style="rounded=1;whiteSpace=wrap;html=1;" parent="1" vertex="1">
          <mxGeometry x="1420" y="1280" width="120" height="60" as="geometry" />
        </mxCell>
        <mxCell id="c_GlmRhwrdmI_Wuf_9AT-50" value="" style="endArrow=classic;html=1;rounded=0;exitX=1;exitY=0.5;exitDx=0;exitDy=0;entryX=0;entryY=0.5;entryDx=0;entryDy=0;" parent="1" source="c_GlmRhwrdmI_Wuf_9AT-40" target="c_GlmRhwrdmI_Wuf_9AT-64" edge="1">
          <mxGeometry width="50" height="50" relative="1" as="geometry">
            <mxPoint x="1710" y="1200" as="sourcePoint" />
            <mxPoint x="1710" y="1040" as="targetPoint" />
          </mxGeometry>
        </mxCell>
        <mxCell id="c_GlmRhwrdmI_Wuf_9AT-51" value="" style="endArrow=none;dashed=1;html=1;dashPattern=1 3;strokeWidth=2;rounded=0;" parent="1" edge="1">
          <mxGeometry width="50" height="50" relative="1" as="geometry">
            <mxPoint x="1620" y="1400" as="sourcePoint" />
            <mxPoint x="1620" y="800" as="targetPoint" />
          </mxGeometry>
        </mxCell>
        <mxCell id="c_GlmRhwrdmI_Wuf_9AT-52" value="NS_RAILWAY_STATION" style="rounded=1;whiteSpace=wrap;html=1;" parent="1" vertex="1">
          <mxGeometry x="1150" y="1070" width="140" height="60" as="geometry" />
        </mxCell>
        <mxCell id="c_GlmRhwrdmI_Wuf_9AT-53" value="" style="endArrow=none;dashed=1;html=1;dashPattern=1 3;strokeWidth=2;rounded=0;entryX=1;entryY=0.5;entryDx=0;entryDy=0;" parent="1" target="c_GlmRhwrdmI_Wuf_9AT-54" edge="1">
          <mxGeometry width="50" height="50" relative="1" as="geometry">
            <mxPoint x="1360" y="1400" as="sourcePoint" />
            <mxPoint x="1359" y="770" as="targetPoint" />
          </mxGeometry>
        </mxCell>
        <mxCell id="c_GlmRhwrdmI_Wuf_9AT-54" value="&lt;b&gt;&lt;font style=&quot;font-size: 15px;&quot;&gt;Root (Level 0)&lt;/font&gt;&lt;/b&gt;" style="text;html=1;align=center;verticalAlign=middle;whiteSpace=wrap;rounded=0;" parent="1" vertex="1">
          <mxGeometry x="1290" y="800" width="70" height="30" as="geometry" />
        </mxCell>
        <mxCell id="c_GlmRhwrdmI_Wuf_9AT-55" value="" style="endArrow=classic;html=1;rounded=0;exitX=1;exitY=0.5;exitDx=0;exitDy=0;entryX=0;entryY=0.5;entryDx=0;entryDy=0;" parent="1" source="c_GlmRhwrdmI_Wuf_9AT-52" target="c_GlmRhwrdmI_Wuf_9AT-40" edge="1">
          <mxGeometry width="50" height="50" relative="1" as="geometry">
            <mxPoint x="1300" y="1110" as="sourcePoint" />
            <mxPoint x="1470" y="1030" as="targetPoint" />
          </mxGeometry>
        </mxCell>
        <mxCell id="c_GlmRhwrdmI_Wuf_9AT-56" value="" style="endArrow=classic;html=1;rounded=0;exitX=1;exitY=0.5;exitDx=0;exitDy=0;entryX=0;entryY=0.5;entryDx=0;entryDy=0;" parent="1" source="c_GlmRhwrdmI_Wuf_9AT-52" target="c_GlmRhwrdmI_Wuf_9AT-41" edge="1">
          <mxGeometry width="50" height="50" relative="1" as="geometry">
            <mxPoint x="1300" y="1110" as="sourcePoint" />
            <mxPoint x="1430" y="970" as="targetPoint" />
          </mxGeometry>
        </mxCell>
        <mxCell id="c_GlmRhwrdmI_Wuf_9AT-57" value="&lt;b&gt;&lt;font style=&quot;font-size: 15px;&quot;&gt;Level1&lt;/font&gt;&lt;/b&gt;" style="text;html=1;align=center;verticalAlign=middle;whiteSpace=wrap;rounded=0;" parent="1" vertex="1">
          <mxGeometry x="1550" y="800" width="60" height="30" as="geometry" />
        </mxCell>
        <mxCell id="c_GlmRhwrdmI_Wuf_9AT-58" value="" style="endArrow=none;dashed=1;html=1;dashPattern=1 3;strokeWidth=2;rounded=0;" parent="1" edge="1">
          <mxGeometry width="50" height="50" relative="1" as="geometry">
            <mxPoint x="1950" y="1395" as="sourcePoint" />
            <mxPoint x="1950" y="800" as="targetPoint" />
          </mxGeometry>
        </mxCell>
        <mxCell id="c_GlmRhwrdmI_Wuf_9AT-59" value="&lt;b&gt;&lt;font style=&quot;font-size: 15px;&quot;&gt;Level2&lt;/font&gt;&lt;/b&gt;" style="text;html=1;align=center;verticalAlign=middle;whiteSpace=wrap;rounded=0;" parent="1" vertex="1">
          <mxGeometry x="1860" y="800" width="60" height="30" as="geometry" />
        </mxCell>
        <mxCell id="c_GlmRhwrdmI_Wuf_9AT-64" value="CONCRETE_RTU" style="rounded=1;whiteSpace=wrap;html=1;" parent="1" vertex="1">
          <mxGeometry x="1710" y="1070" width="180" height="60" as="geometry" />
        </mxCell>
        <mxCell id="c_GlmRhwrdmI_Wuf_9AT-72" value="" style="endArrow=classic;html=1;rounded=0;exitX=1;exitY=0.5;exitDx=0;exitDy=0;entryX=0;entryY=0.5;entryDx=0;entryDy=0;" parent="1" edge="1" target="c_GlmRhwrdmI_Wuf_9AT-64">
          <mxGeometry width="50" height="50" relative="1" as="geometry">
            <mxPoint x="1540" y="1310" as="sourcePoint" />
            <mxPoint x="1710" y="1230" as="targetPoint" />
          </mxGeometry>
        </mxCell>
        <mxCell id="c_GlmRhwrdmI_Wuf_9AT-77" value="&lt;b style=&quot;color: rgb(0, 0, 0); font-family: Helvetica; font-style: normal; font-variant-ligatures: normal; font-variant-caps: normal; letter-spacing: normal; orphans: 2; text-indent: 0px; text-transform: none; widows: 2; word-spacing: 0px; -webkit-text-stroke-width: 0px; white-space: normal; background-color: rgb(251, 251, 251); text-decoration-thickness: initial; text-decoration-style: initial; text-decoration-color: initial;&quot;&gt;&lt;font style=&quot;font-size: 32px;&quot;&gt;MQTT topics for &#39;NS Station&#39; railway segment&lt;/font&gt;&lt;/b&gt;" style="text;whiteSpace=wrap;html=1;align=center;" parent="1" vertex="1">
          <mxGeometry x="1520" y="630" width="560" height="120" as="geometry" />
        </mxCell>
        <mxCell id="c_GlmRhwrdmI_Wuf_9AT-78" value="&lt;h1 style=&quot;margin-top: 0px;&quot;&gt;&lt;u style=&quot;&quot;&gt;Description of topic keywords&lt;/u&gt;&lt;/h1&gt;&lt;p style=&quot;font-size: 14px;&quot;&gt;&lt;/p&gt;&lt;ul&gt;&lt;li&gt;&lt;span style=&quot;font-size: 12px; text-align: center;&quot;&gt;&lt;b&gt;NS_RAILWAY_STAT: Novi Sad railway station as top level scope of this SCADA.&lt;br&gt;&lt;br&gt;&lt;/b&gt;&lt;/span&gt;&lt;/li&gt;&lt;li&gt;&lt;span style=&quot;font-size: 12px; text-align: center;&quot;&gt;&lt;b&gt;&amp;nbsp;&lt;/b&gt;&lt;/span&gt;&lt;b&gt;TELEMETRYL&lt;/b&gt;: Reading measurements from RTUs.&lt;br&gt;&lt;br&gt;&lt;/li&gt;&lt;li&gt;&lt;span style=&quot;text-align: center;&quot;&gt;&lt;b&gt;COMMANDING&lt;/b&gt;:&amp;nbsp;Commanding to RTUs.&lt;br&gt;&lt;/span&gt;&lt;br&gt;&lt;/li&gt;&lt;li&gt;&lt;b&gt;CONCRETE_RTU&lt;/b&gt;: Reading/commanding of concrete remote unit.&amp;nbsp;&lt;br&gt;&lt;br&gt;&lt;/li&gt;&lt;li&gt;&lt;b&gt;ANALOG&lt;/b&gt;: Reading/commanding of analog signals.&amp;nbsp;&lt;br&gt;&lt;br&gt;&lt;/li&gt;&lt;li&gt;&lt;b&gt;DISCRETE&lt;/b&gt;: Reading/commanding of discrete signals.&amp;nbsp;&lt;br&gt;&lt;/li&gt;&lt;/ul&gt;&lt;p&gt;&lt;/p&gt;" style="text;html=1;whiteSpace=wrap;overflow=hidden;rounded=0;" parent="1" vertex="1">
          <mxGeometry x="2340" y="800" width="500" height="250" as="geometry" />
        </mxCell>
        <mxCell id="MoH5wZyYkCrHb79CUevE-1" value="" style="endArrow=none;dashed=1;html=1;dashPattern=1 3;strokeWidth=2;rounded=0;" edge="1" parent="1">
          <mxGeometry width="50" height="50" relative="1" as="geometry">
            <mxPoint x="2280" y="1395" as="sourcePoint" />
            <mxPoint x="2280" y="800" as="targetPoint" />
          </mxGeometry>
        </mxCell>
        <mxCell id="MoH5wZyYkCrHb79CUevE-2" value="&lt;b&gt;&lt;font style=&quot;font-size: 15px;&quot;&gt;Level3&lt;/font&gt;&lt;/b&gt;" style="text;html=1;align=center;verticalAlign=middle;whiteSpace=wrap;rounded=0;" vertex="1" parent="1">
          <mxGeometry x="2210" y="800" width="60" height="30" as="geometry" />
        </mxCell>
        <mxCell id="MoH5wZyYkCrHb79CUevE-3" value="ANALOG" style="rounded=1;whiteSpace=wrap;html=1;" vertex="1" parent="1">
          <mxGeometry x="2040" y="1000" width="180" height="60" as="geometry" />
        </mxCell>
        <mxCell id="MoH5wZyYkCrHb79CUevE-4" value="" style="endArrow=classic;html=1;rounded=0;exitX=1;exitY=0.5;exitDx=0;exitDy=0;entryX=0;entryY=0.5;entryDx=0;entryDy=0;" edge="1" parent="1" source="c_GlmRhwrdmI_Wuf_9AT-64" target="MoH5wZyYkCrHb79CUevE-3">
          <mxGeometry width="50" height="50" relative="1" as="geometry">
            <mxPoint x="1550" y="1320" as="sourcePoint" />
            <mxPoint x="1720" y="1110" as="targetPoint" />
          </mxGeometry>
        </mxCell>
        <mxCell id="MoH5wZyYkCrHb79CUevE-5" value="DISCRETE" style="rounded=1;whiteSpace=wrap;html=1;" vertex="1" parent="1">
          <mxGeometry x="2040" y="1140" width="180" height="60" as="geometry" />
        </mxCell>
        <mxCell id="MoH5wZyYkCrHb79CUevE-6" value="" style="endArrow=classic;html=1;rounded=0;entryX=0;entryY=0.5;entryDx=0;entryDy=0;" edge="1" parent="1" target="MoH5wZyYkCrHb79CUevE-5">
          <mxGeometry width="50" height="50" relative="1" as="geometry">
            <mxPoint x="1890" y="1100" as="sourcePoint" />
            <mxPoint x="1720" y="1250" as="targetPoint" />
          </mxGeometry>
        </mxCell>
      </root>
    </mxGraphModel>
  </diagram>
</mxfile>
